<svg width="22" height="17" viewBox="0 0 22 17" fill="none" xmlns="http://www.w3.org/2000/svg">
<path fill-rule="evenodd" clip-rule="evenodd" d="M17.0325 5.73954C17.4245 5.73954 17.7419 5.4181 17.7419 5.02209C17.7419 4.62609 17.4245 4.30465 17.0325 4.30465C16.6405 4.30465 16.3231 4.62609 16.3231 5.02209C16.3231 5.4181 16.6405 5.73954 17.0325 5.73954ZM1.41897 1.43579C1.41897 1.03878 1.73336 0.718343 2.12836 0.718343H3.54914C3.94112 0.718343 4.25752 1.03676 4.25752 1.43579V2.15223H1.41897V1.43579ZM11.0005 13.6313C8.8441 13.6313 7.09684 11.8649 7.09684 9.68532C7.09684 7.50578 8.8441 5.73937 11.0005 5.73937C13.1548 5.73937 14.9031 7.50578 14.9031 9.68532C14.9031 11.8649 13.1548 13.6313 11.0005 13.6313ZM11.0008 14.7066C13.7437 14.7066 15.9675 12.4585 15.9675 9.68545C15.9675 6.9124 13.7437 4.66333 11.0008 4.66333C8.256 4.66333 6.03212 6.9124 6.03212 9.68545C6.03212 12.4585 8.256 14.7066 11.0008 14.7066ZM5.21156 3.22851L7.01626 0.566299C7.25608 0.253928 7.77099 0 8.15793 0H13.8421C14.232 0 14.7439 0.253928 14.9837 0.566299L16.7894 3.22851H20.5812C21.3652 3.22851 22 3.86937 22 4.66138V15.0674C22 15.8584 21.3652 16.5003 20.5812 16.5003H1.41776C0.634819 16.5003 0 15.8604 0 15.0674V4.66138C0 3.87038 0.634819 3.22851 1.41776 3.22851H5.21156Z" fill="white"/>
</svg>
