<svg width="10" height="26" viewBox="0 0 10 26" fill="none" xmlns="http://www.w3.org/2000/svg">
<path fill-rule="evenodd" clip-rule="evenodd" d="M9.19871 0C9.60865 0 9.9423 0.334666 9.9423 0.746641L9.94128 0.755796H9.9423V1.4882H9.25059C9.24318 1.48863 9.23577 1.48963 9.22836 1.49062C9.21848 1.49195 9.20859 1.49328 9.19871 1.49328H0.744583C0.734213 1.49328 0.724496 1.49198 0.714692 1.49066C0.707185 1.48965 0.699627 1.48864 0.691687 1.4882H0.000993381V0.755796L0.0020106 0.752744L0.000993381 0.746641C0.000993381 0.334666 0.333625 0 0.744583 0H9.19871ZM3.12716 12.1487C3.12716 11.1264 3.95315 10.2974 4.97139 10.2974C5.98962 10.2974 6.81561 11.1264 6.81561 12.1487V14.3703C6.81561 15.3926 5.98962 16.2217 4.97139 16.2217C3.95315 16.2217 3.12716 15.3926 3.12716 14.3703V12.1487ZM0 3.93954L0.0386544 4.00668L0.00203444 3.94463C0.00203444 3.94463 0.29296 4.90285 0.965343 6.0574C1.47497 6.93322 1.95205 7.50897 2.17482 7.75819L2.29384 7.96774V24.4152C2.29384 25.29 3.0008 26 3.87256 26H6.06976C6.94152 26 7.64849 25.29 7.64849 24.4152V7.94434L7.73597 7.78973C7.94247 7.5639 8.44294 6.97493 8.978 6.05231C9.6514 4.89878 9.94131 3.93954 9.94131 3.93954V2.63445H0V3.93954ZM4.78467 15.4347C5.39805 15.5384 5.97685 15.1234 6.07959 14.508C6.18335 13.8926 5.76934 13.3107 5.15697 13.208C4.5446 13.1042 3.96479 13.5193 3.86205 14.1347C3.75931 14.7491 4.1723 15.3309 4.78467 15.4347Z" fill="white"/>
</svg>
