<svg width="17" height="17" viewBox="0 0 17 17" fill="none" xmlns="http://www.w3.org/2000/svg">
<path d="M17 13.3571C17 13.9121 16.5501 14.3621 15.9951 14.3621H1.00489C0.449902 14.3621 0 13.9121 0 13.3571V3.64309C0 3.08806 0.449902 2.63816 1.00489 2.63816H15.9951C16.5501 2.63816 17 3.0881 17 3.64309V13.3571Z" fill="white"/>
<path d="M3.77314 8.5677L3.37397 6.65284C3.30574 6.38878 3.10718 6.31022 2.85909 6.29983H1.029L1.0127 6.38732C2.43807 6.73286 3.38121 7.56646 3.77314 8.5677Z" fill="#F79F1A"/>
<path d="M8.01374 6.3385H6.83128L6.09277 10.6724H7.27328L8.01374 6.3385Z" fill="#059BBF"/>
<path d="M4.49395 10.6679L6.35366 6.34129H5.1022L3.9453 9.29729L3.82182 8.85097C3.59504 8.31405 2.94692 7.54125 2.18604 7.05476L3.24355 10.6693L4.49395 10.6679Z" fill="#059BBF"/>
<path d="M11.3863 9.25551C11.3907 8.76347 11.0748 8.38817 10.394 8.07819C9.98021 7.87797 9.72803 7.74446 9.73105 7.54129C9.73105 7.3618 9.94461 7.16899 10.4073 7.16899C10.7945 7.16304 11.0733 7.24758 11.2913 7.3351L11.3982 7.38408L11.5584 6.44519C11.324 6.35764 10.9576 6.2642 10.4994 6.2642C9.33208 6.2642 8.51039 6.8516 8.50296 7.69406C8.49552 8.31705 9.09039 8.66412 9.53827 8.87174C9.99804 9.08338 10.1523 9.21882 10.1493 9.40867C10.1464 9.69897 9.78294 9.83135 9.44331 9.83135C8.97016 9.83135 8.71948 9.7661 8.3307 9.60414L8.17962 9.53474L8.01367 10.5059C8.28936 10.6264 8.79953 10.7317 9.32912 10.7361C10.5705 10.7361 11.3774 10.1562 11.3863 9.25551Z" fill="#059BBF"/>
<path d="M12.7909 10.0228C12.9258 10.0228 14.1317 10.0243 14.3038 10.0243C14.3394 10.1752 14.4477 10.6739 14.4477 10.6739H15.5437L14.587 6.34297H13.6749C13.3916 6.34297 13.181 6.4201 13.0564 6.70187L11.3018 10.6739H12.5433C12.5432 10.6739 12.7449 10.1401 12.7909 10.0228ZM13.6006 7.92405C13.5948 7.9359 13.6986 7.67339 13.7579 7.51023L13.838 7.88397C13.838 7.88397 14.0635 8.91931 14.1109 9.13587H13.1305C13.2284 8.88671 13.6006 7.92405 13.6006 7.92405Z" fill="#059BBF"/>
<path d="M15.9951 2.63816H1.00489C0.449902 2.63816 0 3.08806 0 3.64308V4.68605H17V3.64308C17 3.08806 16.5501 2.63816 15.9951 2.63816Z" fill="#059BBF"/>
<path d="M15.9951 14.362H1.00489C0.449902 14.362 0 13.9121 0 13.3571V12.3141H17V13.3571C17 13.9121 16.5501 14.362 15.9951 14.362Z" fill="#F79F1A"/>
<path opacity="0.15" d="M0.714432 13.3571V3.64309C0.714432 3.08806 1.16437 2.63816 1.71939 2.63816H1.00486C0.449902 2.63816 0 3.08806 0 3.64309V13.3572C0 13.9122 0.449902 14.3621 1.00489 14.3621H1.71942C1.1644 14.3621 0.714432 13.9121 0.714432 13.3571Z" fill="#1A1D26"/>
</svg>
