<svg width="23" height="23" viewBox="0 0 23 23" fill="none" xmlns="http://www.w3.org/2000/svg">
<g clip-path="url(#clip0_1485_21878)">
<path d="M14.3152 0C9.52662 0 5.63086 3.88511 5.63086 8.66059C5.63086 13.4361 9.52662 17.3212 14.3152 17.3212C19.1038 17.3212 22.9995 13.4361 22.9995 8.66059C22.9995 3.88511 19.1037 0 14.3152 0ZM14.3152 15.9725C10.2703 15.9725 6.97951 12.6924 6.97951 8.66059C6.97951 4.62875 10.2703 1.34865 14.3152 1.34865C18.3601 1.34865 21.6509 4.6288 21.6509 8.66059C21.6509 12.6924 18.3601 15.9725 14.3152 15.9725Z" fill="#9A9FAE"/>
<path d="M14.9893 4.2959H13.6406V9.33455H18.6902V7.9859H14.9893V4.2959Z" fill="#9A9FAE"/>
<path d="M0.646484 16.2969L4.25291 12.7006L5.20505 13.6555L1.59863 17.2517L0.646484 16.2969Z" fill="#9A9FAE"/>
<path d="M1.61133 20.4346L5.82601 16.2318L6.77816 17.1866L2.56348 21.3894L1.61133 20.4346Z" fill="#9A9FAE"/>
<path d="M5.76172 21.3975L9.36814 17.8012L10.3203 18.7561L6.71387 22.3523L5.76172 21.3975Z" fill="#9A9FAE"/>
</g>
<defs>
<clipPath id="clip0_1485_21878">
<rect width="23" height="23" fill="white"/>
</clipPath>
</defs>
</svg>
