<svg width="185" height="25" viewBox="0 0 185 25" fill="none" xmlns="http://www.w3.org/2000/svg">
<path d="M21.03 25L13 20.7534L4.96688 25L6.50461 15.9991L0 9.6261L8.98036 8.31373L13 0L17.0196 8.31373L26 9.6261L19.4954 16.0022L21.03 25Z" fill="#ED9732"/>
<path d="M99.8389 25L91.5 20.7534L83.1579 25L84.7548 15.9991L78 9.6261L87.3258 8.31373L91.5 0L95.6742 8.31373L105 9.6261L98.2452 16.0022L99.8389 25Z" fill="#ED9732"/>
<path d="M60.03 25L52 20.7534L43.9669 25L45.5046 15.9991L39 9.6261L47.9804 8.31373L52 0L56.0196 8.31373L65 9.6261L58.4954 16.0022L60.03 25Z" fill="#ED9732"/>
<path d="M139.839 25L131.5 20.7534L123.158 25L124.755 15.9991L118 9.6261L127.326 8.31373L131.5 0L135.674 8.31373L145 9.6261L138.245 16.0022L139.839 25Z" fill="#A8ACB9"/>
<path d="M179.839 25L171.5 20.7534L163.158 25L164.755 15.9991L158 9.6261L167.326 8.31373L171.5 0L175.674 8.31373L185 9.6261L178.245 16.0022L179.839 25Z" fill="#A8ACB9"/>
</svg>
