<svg width="30" height="30" viewBox="0 0 30 30" fill="none" xmlns="http://www.w3.org/2000/svg">
<path d="M25.3125 19.2191H25.1578L23.4656 15.2722C23.7525 15.398 24.0618 15.4649 24.375 15.4691C24.4993 15.4691 24.6185 15.4197 24.7065 15.3318C24.7944 15.2439 24.8438 15.1247 24.8438 15.0004V11.2504C24.8438 11.126 24.7944 11.0068 24.7065 10.9189C24.6185 10.831 24.4993 10.7816 24.375 10.7816C23.8869 10.7842 23.4117 10.9393 23.0159 11.225C22.6201 11.5107 22.3234 11.9129 22.1672 12.3754C22.0293 12.1828 21.8532 12.0206 21.65 11.8988C21.4468 11.7771 21.2208 11.6983 20.9859 11.6675C20.6882 11.6291 20.3858 11.6482 20.0953 11.7238H19.6875C18.8953 11.7238 18.5438 11.255 17.9906 10.491L17.7141 10.1019C17.9977 10.0874 18.2726 9.99853 18.5109 9.8441C18.6918 9.71281 18.845 9.54709 18.9616 9.35644C19.0782 9.16579 19.1561 8.95398 19.1906 8.73316C19.343 8.64539 19.4762 8.52801 19.5825 8.38793C19.6888 8.24785 19.7659 8.08791 19.8094 7.91754C19.8292 7.78316 19.8161 7.64599 19.7712 7.5178C19.7262 7.38961 19.6509 7.27424 19.5516 7.1816C19.3602 6.85391 19.2553 6.48289 19.2469 6.10348C19.3679 6.09623 19.4814 6.04238 19.5636 5.95323C19.6457 5.86408 19.6901 5.74656 19.6875 5.62535C19.6875 5.12853 19.5889 4.63665 19.3972 4.17828C19.2055 3.71992 18.9247 3.30421 18.571 2.95531C18.2173 2.6064 17.7978 2.33126 17.3368 2.14587C16.8759 1.96048 16.3827 1.86852 15.8859 1.87535C14.9111 1.89455 13.9815 2.29036 13.292 2.97984C12.6025 3.66931 12.2067 4.59892 12.1875 5.57379C12.1787 6.0708 12.2696 6.56454 12.4548 7.02585C12.64 7.48716 12.9157 7.90671 13.2656 8.25973C13.3693 8.36281 13.4789 8.45985 13.5938 8.55035C11.7844 8.99098 10.8328 10.6879 10.3453 12.1597C10.2066 12.0199 10.0415 11.909 9.85972 11.8334C9.67789 11.7578 9.48287 11.7189 9.28594 11.7191H4.30781C4.05783 11.7187 3.81175 11.7811 3.59222 11.9007C3.3727 12.0203 3.18678 12.1932 3.05156 12.4035C2.98381 12.5079 2.96031 12.635 2.98625 12.7567C3.01218 12.8785 3.08541 12.9849 3.18984 13.0527C3.29427 13.1205 3.42134 13.1439 3.54309 13.118C3.66484 13.0921 3.77131 13.0188 3.83906 12.9144C3.88957 12.8362 3.95901 12.772 4.04096 12.7277C4.1229 12.6835 4.21469 12.6606 4.30781 12.6613H5.15625V14.0675C5.15625 14.1919 5.20564 14.3111 5.29354 14.399C5.38145 14.4869 5.50068 14.5363 5.625 14.5363H7.96875C8.09307 14.5363 8.2123 14.4869 8.30021 14.399C8.38811 14.3111 8.4375 14.1919 8.4375 14.0675V12.6566H9.28594C9.35919 12.6566 9.43173 12.671 9.4994 12.6991C9.56708 12.7271 9.62857 12.7682 9.68037 12.82C9.73217 12.8718 9.77326 12.9333 9.80129 13.0009C9.82932 13.0686 9.84375 13.1412 9.84375 13.2144V16.791C9.84251 16.9381 9.7832 17.0788 9.67872 17.1824C9.57425 17.286 9.43307 17.3441 9.28594 17.3441H4.30781C4.17357 17.3478 4.04263 17.3021 3.93981 17.2157C3.837 17.1293 3.76946 17.0082 3.75 16.8753H4.6875C4.81182 16.8753 4.93105 16.826 5.01896 16.7381C5.10686 16.6502 5.15625 16.5309 5.15625 16.4066C5.15625 16.2823 5.10686 16.1631 5.01896 16.0751C4.93105 15.9872 4.81182 15.9379 4.6875 15.9379H3.75V15.0004H4.21875C4.34307 15.0004 4.4623 14.951 4.55021 14.8631C4.63811 14.7752 4.6875 14.6559 4.6875 14.5316C4.6875 14.4073 4.63811 14.2881 4.55021 14.2001C4.4623 14.1122 4.34307 14.0629 4.21875 14.0629H1.875C1.75068 14.0629 1.63145 14.1122 1.54354 14.2001C1.45564 14.2881 1.40625 14.4073 1.40625 14.5316C1.40625 14.6559 1.45564 14.7752 1.54354 14.8631C1.63145 14.951 1.75068 15.0004 1.875 15.0004H2.8125V15.9379H0.9375C0.81318 15.9379 0.693951 15.9872 0.606044 16.0751C0.518136 16.1631 0.46875 16.2823 0.46875 16.4066C0.46875 16.5309 0.518136 16.6502 0.606044 16.7381C0.693951 16.826 0.81318 16.8753 0.9375 16.8753H2.8125C2.83403 17.2551 2.99989 17.6122 3.27613 17.8736C3.55238 18.1351 3.9181 18.281 4.29844 18.2816H6.64219C6.42527 18.4943 6.24052 18.7375 6.09375 19.0035C5.46778 20.2311 5.14624 21.5912 5.15625 22.9691C5.15625 23.0934 5.20564 23.2126 5.29354 23.3006C5.38145 23.3885 5.50068 23.4378 5.625 23.4378H7.06406C7.18402 24.3387 7.62706 25.1654 8.3108 25.7641C8.99453 26.3628 9.87243 26.6929 10.7812 26.6929C11.6901 26.6929 12.568 26.3628 13.2517 25.7641C13.9354 25.1654 14.3785 24.3387 14.4984 23.4378H21.5953C21.6855 24.154 21.9805 24.8289 22.4449 25.3815C22.9093 25.9342 23.5233 26.341 24.2132 26.5533C24.9031 26.7656 25.6396 26.7742 26.3343 26.5782C27.029 26.3821 27.6523 25.9898 28.1295 25.4482C28.6067 24.9066 28.9175 24.2388 29.0245 23.525C29.1315 22.8111 29.0302 22.0816 28.7327 21.4239C28.4353 20.7662 27.9544 20.2083 27.3477 19.8172C26.741 19.4261 26.0343 19.2184 25.3125 19.2191ZM7.5 13.5941H6.09375V12.6566H7.5V13.5941ZM23.9062 11.7988V14.4519C23.6316 14.3553 23.3937 14.1758 23.2254 13.9382C23.057 13.7005 22.9667 13.4165 22.9667 13.1254C22.9667 12.8342 23.057 12.5502 23.2254 12.3125C23.3937 12.0749 23.6316 11.8954 23.9062 11.7988ZM20.85 12.591C21.0338 12.6185 21.2045 12.7022 21.3388 12.8306C21.4731 12.959 21.5643 13.1258 21.6 13.3082L21.7219 13.5941C21.0692 13.9296 20.3411 14.091 19.6078 14.0629C19.5432 13.7844 19.5771 13.4922 19.7035 13.2358C19.83 12.9795 20.0413 12.7748 20.3016 12.6566C20.4783 12.5993 20.6649 12.5785 20.85 12.5957V12.591ZM18.5391 8.01598C18.461 8.05529 18.3956 8.11562 18.35 8.19016C18.3045 8.2647 18.2806 8.35049 18.2812 8.43785C18.2778 8.55586 18.2497 8.67184 18.1989 8.77839C18.148 8.88493 18.0755 8.97969 17.9859 9.0566C17.7188 9.23473 17.2219 9.19254 16.5797 8.93941C16.5454 8.93562 16.5108 8.93562 16.4766 8.93941L16.4062 8.87848V7.08317C16.4062 6.82085 16.5105 6.56928 16.6959 6.38379C16.8814 6.19831 17.133 6.0941 17.3953 6.0941H18.2812C18.296 6.70088 18.4865 7.29035 18.8297 7.79098C18.7449 7.88169 18.6469 7.95912 18.5391 8.02067V8.01598ZM13.125 5.58317C13.1484 4.85587 13.4478 4.16477 13.9624 3.65023C14.4769 3.13569 15.168 2.8363 15.8953 2.81285H15.9375C16.6025 2.81242 17.2461 3.04761 17.7541 3.47668C18.2621 3.90575 18.6017 4.50094 18.7125 5.1566H17.3953C16.8847 5.15784 16.3954 5.36122 16.0344 5.72225C15.6734 6.08328 15.47 6.57259 15.4688 7.08317V8.40035C14.8067 8.28851 14.2065 7.94349 13.7766 7.42766C13.3467 6.91184 13.1156 6.25924 13.125 5.58785V5.58317ZM14.5312 9.37535C16.0641 9.37535 16.6266 10.1769 17.2219 11.0207C17.6531 11.6394 18.1594 12.3144 19.0031 12.5535C18.7377 12.9823 18.6177 13.4854 18.6609 13.9879C18.0791 13.8608 17.5304 13.6132 17.05 13.2612C16.5697 12.9093 16.1683 12.4606 15.8719 11.9441C15.8463 11.8821 15.8078 11.8264 15.7589 11.7806C15.71 11.7348 15.6518 11.7 15.5883 11.6786C15.5248 11.6572 15.4575 11.6496 15.3908 11.6564C15.3241 11.6632 15.2597 11.6843 15.2019 11.7181C15.144 11.7519 15.0941 11.7978 15.0555 11.8525C15.0168 11.9073 14.9904 11.9697 14.9779 12.0355C14.9655 12.1014 14.9673 12.1691 14.9832 12.2342C14.9991 12.2993 15.0288 12.3602 15.0703 12.4129C15.2402 12.698 15.4347 12.9678 15.6516 13.2191L15.6094 13.2472C15.1724 13.7498 14.865 14.3517 14.7141 15.0004H10.7812V14.5316C10.8141 14.2457 11.3484 9.37535 14.5312 9.37535ZM10.7812 16.7863V15.9379H15C15.0938 15.9379 17.3438 15.966 17.3438 18.2816V20.6253H15.4688V19.6878C15.4806 19.3769 15.4281 19.0668 15.3145 18.7771C15.2009 18.4874 15.0287 18.2243 14.8086 18.0042C14.5886 17.7842 14.3255 17.612 14.0357 17.4984C13.746 17.3848 13.436 17.3323 13.125 17.3441H10.6734C10.745 17.1669 10.7816 16.9774 10.7812 16.7863ZM10.7812 25.7816C10.1171 25.7809 9.47459 25.5452 8.96755 25.1163C8.46051 24.6873 8.12163 24.0927 8.01094 23.4378H8.97187C9.07982 23.8351 9.31547 24.1857 9.64247 24.4357C9.96947 24.6857 10.3696 24.8211 10.7812 24.8211C11.1929 24.8211 11.593 24.6857 11.92 24.4357C12.247 24.1857 12.4827 23.8351 12.5906 23.4378H13.5516C13.4409 24.0927 13.102 24.6873 12.5949 25.1163C12.0879 25.5452 11.4454 25.7809 10.7812 25.7816ZM9.975 23.4378H11.5875C11.5045 23.5777 11.3865 23.6936 11.2451 23.7741C11.1038 23.8546 10.9439 23.8969 10.7812 23.8969C10.6186 23.8969 10.4587 23.8546 10.3174 23.7741C10.176 23.6936 10.058 23.5777 9.975 23.4378ZM6.09375 22.5003C6.15356 21.4214 6.4445 20.368 6.94687 19.4113C7.13346 19.0644 7.41189 18.7755 7.7517 18.5762C8.0915 18.377 8.47958 18.275 8.87344 18.2816H13.125C13.3123 18.2715 13.4997 18.3009 13.6749 18.368C13.8501 18.435 14.0093 18.5383 14.1419 18.6709C14.2746 18.8036 14.3778 18.9627 14.4449 19.1379C14.512 19.3131 14.5414 19.5005 14.5312 19.6878V21.0941C14.5312 21.6012 14.6957 22.0947 15 22.5003H6.09375ZM16.875 22.5003C16.5849 22.4995 16.3021 22.409 16.0654 22.2412C15.8288 22.0733 15.6498 21.8364 15.5531 21.5628H17.8125C17.9349 21.555 18.0575 21.5727 18.1727 21.615C18.2878 21.6572 18.3928 21.723 18.4811 21.8081C18.5693 21.8933 18.6388 21.9959 18.6851 22.1095C18.7314 22.223 18.7535 22.345 18.75 22.4675C18.5946 22.4883 18.438 22.4992 18.2812 22.5003H16.875ZM19.8797 21.9519C19.812 22.0285 19.7348 22.0963 19.65 22.1535C19.5985 21.7991 19.4398 21.469 19.1951 21.2075C18.9504 20.946 18.6315 20.7658 18.2812 20.691V18.2816C18.3235 17.5168 18.0788 16.7637 17.595 16.1698C17.1112 15.5759 16.4232 15.1839 15.6656 15.0707C15.7858 14.6502 15.9917 14.2592 16.2703 13.9222C16.2824 13.9058 16.2934 13.8886 16.3031 13.8707C17.0307 14.4608 17.9062 14.8402 18.8344 14.9675L20.1562 20.7144C20.2305 21.1472 20.1311 21.5919 19.8797 21.9519ZM21.0938 20.5222L19.8047 15.0004C20.5979 15.0077 21.3816 14.8278 22.0922 14.4754L24.3047 19.6316L22.2609 22.5003H20.625C20.8307 22.2184 20.9782 21.8982 21.0586 21.5585C21.1391 21.2188 21.1511 20.8665 21.0938 20.5222ZM25.3125 22.5003H24.5062C24.6094 22.3216 24.7687 22.1819 24.9594 22.103C25.15 22.024 25.3614 22.0101 25.5608 22.0635C25.7601 22.117 25.9363 22.2347 26.0619 22.3984C26.1876 22.5621 26.2556 22.7627 26.2556 22.9691C26.2556 23.1755 26.1876 23.3761 26.0619 23.5398C25.9363 23.7035 25.7601 23.8212 25.5608 23.8747C25.3614 23.9281 25.15 23.9142 24.9594 23.8352C24.7687 23.7563 24.6094 23.6166 24.5062 23.4378H25.3125C25.4368 23.4378 25.556 23.3885 25.644 23.3006C25.7319 23.2126 25.7812 23.0934 25.7812 22.9691C25.7812 22.8448 25.7319 22.7255 25.644 22.6376C25.556 22.5497 25.4368 22.5003 25.3125 22.5003ZM23.4094 22.5003L23.5734 22.2707C23.5451 22.3456 23.5216 22.4224 23.5031 22.5003H23.4094ZM25.3125 25.7816C24.6483 25.7809 24.0058 25.5452 23.4988 25.1163C22.9918 24.6873 22.6529 24.0927 22.5422 23.4378H23.5031C23.6058 23.8332 23.8348 24.1843 24.1552 24.4376C24.4757 24.6909 24.8702 24.8327 25.2786 24.8412C25.687 24.8498 26.087 24.7248 26.4179 24.4852C26.7487 24.2455 26.9922 23.9044 27.1114 23.5137C27.2306 23.1229 27.2189 22.704 27.0781 22.3205C26.9373 21.937 26.6751 21.61 26.3314 21.3892C25.9878 21.1684 25.5814 21.0658 25.1741 21.0972C24.7668 21.1285 24.3808 21.292 24.075 21.5628L25.0734 20.1566C25.1531 20.1566 25.2328 20.1566 25.3125 20.1566C26.0584 20.1566 26.7738 20.4529 27.3012 20.9804C27.8287 21.5078 28.125 22.2232 28.125 22.9691C28.125 23.715 27.8287 24.4304 27.3012 24.9578C26.7738 25.4853 26.0584 25.7816 25.3125 25.7816Z" fill="#38CCA0"/>
</svg>
