<svg width="22" height="20" viewBox="0 0 22 20" fill="none" xmlns="http://www.w3.org/2000/svg">
<path d="M18.8966 19.8718H18.8968C19.3209 19.8713 19.7276 19.7026 20.0275 19.4026C20.3275 19.1027 20.4962 18.696 20.4967 18.2719V18.2717V14.2413C20.4967 14.1274 20.4515 14.0181 20.3709 13.9376C20.2904 13.8571 20.1812 13.8118 20.0673 13.8118C19.9534 13.8118 19.8441 13.8571 19.7636 13.9376C19.6831 14.0181 19.6378 14.1274 19.6378 14.2413V18.2715C19.6375 18.4681 19.5593 18.6565 19.4204 18.7955C19.2814 18.9344 19.093 19.0126 18.8964 19.0129H1.7285C1.53195 19.0126 1.34354 18.9344 1.20456 18.7955C1.0656 18.6565 0.987407 18.4681 0.987112 18.2716V5.04455L18.8965 5.04455C18.8965 5.04455 18.8965 5.04455 18.8965 5.04455C19.0931 5.04477 19.2815 5.12294 19.4205 5.26191C19.5594 5.4009 19.6376 5.58934 19.6378 5.78589V9.8165C19.6378 9.9304 19.6831 10.0396 19.7636 10.1202C19.8441 10.2007 19.9534 10.246 20.0673 10.246C20.1812 10.246 20.2904 10.2007 20.3709 10.1202C20.4515 10.0396 20.4967 9.9304 20.4967 9.8165V5.78576V5.7856C20.4962 5.36143 20.3275 4.95477 20.0275 4.65484C19.7276 4.3549 19.3209 4.18616 18.8968 4.18564H18.8966H0.557658C0.44376 4.18564 0.334526 4.23089 0.253988 4.31143C0.173449 4.39197 0.128204 4.5012 0.128204 4.6151L0.128203 18.2717L0.128204 18.2718C0.128637 18.696 0.297346 19.1028 0.597307 19.4027C0.897268 19.7027 1.30398 19.8714 1.72819 19.8718H1.72832H18.8966Z" fill="#9A9FAE" stroke="#9A9FAE" stroke-width="0.25"/>
<path d="M20.5374 14.6692H20.5375C20.7852 14.6689 21.0225 14.5703 21.1975 14.3951C21.3725 14.2199 21.4708 13.9825 21.4708 13.7348V10.3217V10.3215C21.4706 10.074 21.3722 9.83679 21.1972 9.66178C21.0223 9.48677 20.785 9.38827 20.5376 9.3879H20.5374H17.0094C16.3091 9.3879 15.6374 9.66611 15.1422 10.1613C14.647 10.6565 14.3688 11.3282 14.3688 12.0285C14.3688 12.7289 14.647 13.4005 15.1422 13.8958C15.6374 14.391 16.3091 14.6692 17.0094 14.6692H20.5374ZM17.0094 10.248H17.0095L20.5372 10.2468C20.557 10.2469 20.576 10.2548 20.59 10.2689C20.604 10.2829 20.6119 10.302 20.6119 10.3218L20.6119 13.7348L20.6119 13.736C20.612 13.7458 20.6102 13.7556 20.6064 13.7648C20.6027 13.7739 20.5972 13.7823 20.5903 13.7893C20.5833 13.7963 20.5751 13.8019 20.566 13.8057C20.5569 13.8095 20.5471 13.8115 20.5372 13.8115H17.0094C16.7755 13.8115 16.5438 13.7654 16.3276 13.6758C16.1114 13.5863 15.915 13.4551 15.7496 13.2896C15.5841 13.1242 15.4529 12.9278 15.3633 12.7116C15.2738 12.4954 15.2277 12.2637 15.2277 12.0297C15.2277 11.7958 15.2738 11.5641 15.3633 11.3479C15.4529 11.1317 15.5841 10.9353 15.7496 10.7699C15.915 10.6044 16.1114 10.4732 16.3276 10.3836C16.5438 10.2941 16.7755 10.248 17.0094 10.248Z" fill="#9A9FAE" stroke="#9A9FAE" stroke-width="0.25"/>
<path d="M0.418444 4.20862L0.418454 4.20861L11.9636 0.253497C11.9636 0.253494 11.9636 0.253492 11.9636 0.253489C12.3128 0.133805 12.6855 0.0992028 13.0507 0.152559C13.4159 0.205916 13.7632 0.345694 14.0635 0.56027C14.3639 0.774846 14.6086 1.05802 14.7775 1.38625C14.9464 1.71447 15.0344 2.07827 15.0344 2.44738C15.0344 2.44739 15.0344 2.44739 15.0344 2.4474V4.61488C15.0344 4.72878 14.9891 4.83801 14.9086 4.91855C14.8281 4.99909 14.7188 5.04434 14.6049 5.04434C14.491 5.04434 14.3818 4.99909 14.3013 4.91855C14.2207 4.83801 14.1755 4.72878 14.1755 4.61488V2.44738C14.1755 2.21499 14.12 1.98594 14.0136 1.7793C13.9073 1.57265 13.7532 1.39437 13.5641 1.25927C13.375 1.12417 13.1563 1.03616 12.9264 1.00255C12.6964 0.96894 12.4618 0.9907 12.2419 1.06602L12.2004 0.94474L12.2419 1.06602L0.696935 5.02109C0.696916 5.0211 0.696897 5.0211 0.696878 5.02111L0.696763 5.02115L0.418444 4.20862ZM0.418444 4.20862C0.322275 4.24157 0.240914 4.30757 0.188836 4.39488C0.136758 4.48218 0.11734 4.58513 0.134036 4.68541C0.150731 4.78569 0.202459 4.87679 0.280016 4.94252C0.357538 5.00821 0.455844 5.04429 0.557457 5.04434M0.418444 4.20862L0.557457 5.04434M0.557457 5.04434C0.557501 5.04434 0.557544 5.04434 0.557587 5.04434L0.557608 4.91613L0.557457 5.04434Z" fill="#9A9FAE" stroke="#9A9FAE" stroke-width="0.25"/>
<path d="M18.3383 12.0283V12.0282C18.3383 11.7889 18.2673 11.5549 18.1344 11.356C18.0014 11.157 17.8125 11.0019 17.5914 10.9103C17.3703 10.8187 17.127 10.7947 16.8923 10.8414C16.6576 10.8881 16.442 11.0033 16.2728 11.1725C16.1036 11.3416 15.9883 11.5572 15.9416 11.7919C15.8948 12.0266 15.9187 12.2699 16.0103 12.491C16.1018 12.7121 16.2568 12.9011 16.4558 13.0341C16.6547 13.1671 16.8886 13.2381 17.1279 13.2382H17.128C17.4489 13.238 17.7566 13.1105 17.9835 12.8836C18.2104 12.6568 18.338 12.3491 18.3383 12.0283ZM16.9329 11.7366C16.9906 11.698 17.0585 11.6774 17.128 11.6774C17.221 11.6774 17.3103 11.7143 17.3761 11.7801C17.442 11.8459 17.479 11.9352 17.479 12.0283C17.4791 12.0977 17.4585 12.1656 17.42 12.2234C17.3814 12.2811 17.3266 12.3262 17.2625 12.3528C17.1983 12.3794 17.1277 12.3864 17.0596 12.3728C16.9915 12.3593 16.9289 12.3259 16.8798 12.2768C16.8307 12.2277 16.7972 12.1652 16.7836 12.097C16.7701 12.0289 16.777 11.9583 16.8036 11.8942C16.8301 11.83 16.8751 11.7752 16.9329 11.7366Z" fill="#9A9FAE" stroke="#9A9FAE" stroke-width="0.25"/>
</svg>
