<svg width="37" height="39" viewBox="0 0 37 39" fill="none" xmlns="http://www.w3.org/2000/svg">
<path fill-rule="evenodd" clip-rule="evenodd" d="M27.1139 0.983887C22.0289 0.983887 17.8919 4.99689 17.8919 9.92889V19.2209H3.59991C1.72891 19.2209 0.211914 20.6919 0.211914 22.5079V35.4229C0.211914 37.2389 1.72891 38.7109 3.59991 38.7109H20.1399C22.0109 38.7109 23.5289 37.2389 23.5289 35.4229V22.5079C23.5289 20.8589 22.2759 19.4979 20.6439 19.2609V9.92889C20.6439 6.46889 23.5469 3.65289 27.1139 3.65289C30.6809 3.65289 33.5839 6.46889 33.5839 9.92889V15.8399C33.5839 16.5769 34.1989 17.1749 34.9589 17.1749C35.7179 17.1749 36.3349 16.5769 36.3349 15.8399V9.92889C36.3349 4.99689 32.1979 0.983887 27.1139 0.983887Z" fill="white"/>
</svg>
