<svg width="24" height="20" viewBox="0 0 24 20" fill="none" xmlns="http://www.w3.org/2000/svg">
<path d="M23.234 17.1064C23.234 17.6481 23.0188 18.1676 22.6358 18.5507C22.2527 18.9337 21.7332 19.1489 21.1915 19.1489H2.80851C2.26679 19.1489 1.74726 18.9337 1.36421 18.5507C0.981154 18.1676 0.765957 17.6481 0.765957 17.1064V5.87234C0.765957 5.33062 0.981154 4.81109 1.36421 4.42804C1.74726 4.04498 2.26679 3.82979 2.80851 3.82979H6.89362L8.93617 0.765957H15.0638L17.1064 3.82979H21.1915C21.7332 3.82979 22.2527 4.04498 22.6358 4.42804C23.0188 4.81109 23.234 5.33062 23.234 5.87234V17.1064Z" stroke="#9A9FAE" stroke-width="1.5" stroke-linecap="round" stroke-linejoin="round"/>
<path d="M12 15.0638C14.2561 15.0638 16.0851 13.2349 16.0851 10.9787C16.0851 8.72258 14.2561 6.89362 12 6.89362C9.74386 6.89362 7.91489 8.72258 7.91489 10.9787C7.91489 13.2349 9.74386 15.0638 12 15.0638Z" stroke="#9A9FAE" stroke-width="1.5" stroke-linecap="round" stroke-linejoin="round"/>
</svg>
