<svg width="17" height="17" viewBox="0 0 17 17" fill="none" xmlns="http://www.w3.org/2000/svg">
<g clip-path="url(#clip0_2040_17832)">
<path d="M17 13.3567C17 13.9117 16.5501 14.3616 15.9951 14.3616H1.00489C0.449902 14.3617 0 13.9117 0 13.3567V3.64262C0 3.0876 0.449902 2.6377 1.00489 2.6377H15.9951C16.5501 2.6377 17 3.08763 17 3.64262V13.3567Z" fill="white"/>
<path d="M3.77314 8.56768L3.37397 6.65282C3.30574 6.38876 3.10718 6.3102 2.85909 6.2998H1.029L1.0127 6.3873C2.43807 6.73284 3.38121 7.56644 3.77314 8.56768Z" fill="#F79F1A"/>
<path d="M8.01374 6.33789H6.83128L6.09277 10.6718H7.27328L8.01374 6.33789Z" fill="#059BBF"/>
<path d="M4.49395 10.6674L6.35366 6.34082H5.1022L3.9453 9.29681L3.82182 8.8505C3.59504 8.31357 2.94692 7.54078 2.18604 7.05429L3.24355 10.6689L4.49395 10.6674Z" fill="#059BBF"/>
<path d="M11.3863 9.25497C11.3907 8.76294 11.0748 8.38764 10.394 8.07766C9.98021 7.87744 9.72803 7.74393 9.73105 7.54076C9.73105 7.36127 9.94461 7.16846 10.4073 7.16846C10.7945 7.16251 11.0733 7.24705 11.2913 7.33457L11.3982 7.38355L11.5584 6.44466C11.324 6.35711 10.9576 6.26367 10.4994 6.26367C9.33208 6.26367 8.51039 6.85107 8.50296 7.69353C8.49552 8.31652 9.09039 8.66359 9.53827 8.87121C9.99804 9.08285 10.1523 9.21829 10.1493 9.40814C10.1464 9.69844 9.78294 9.83082 9.44331 9.83082C8.97016 9.83082 8.71948 9.76557 8.3307 9.60361L8.17962 9.53421L8.01367 10.5054C8.28936 10.6259 8.79953 10.7312 9.32912 10.7356C10.5705 10.7356 11.3774 10.1556 11.3863 9.25497Z" fill="#059BBF"/>
<path d="M12.7909 10.0226C12.9258 10.0226 14.1317 10.0241 14.3038 10.0241C14.3394 10.175 14.4477 10.6737 14.4477 10.6737H15.5437L14.587 6.34277H13.6749C13.3916 6.34277 13.181 6.4199 13.0564 6.70167L11.3018 10.6737H12.5433C12.5432 10.6737 12.7449 10.1399 12.7909 10.0226ZM13.6006 7.92385C13.5948 7.9357 13.6986 7.6732 13.7579 7.51004L13.838 7.88377C13.838 7.88377 14.0635 8.91912 14.1109 9.13567H13.1305C13.2284 8.88651 13.6006 7.92385 13.6006 7.92385Z" fill="#059BBF"/>
<path d="M15.9951 2.6377H1.00489C0.449902 2.6377 0 3.0876 0 3.64262V4.68559H17V3.64262C17 3.0876 16.5501 2.6377 15.9951 2.6377Z" fill="#059BBF"/>
<path d="M15.9951 14.3624H1.00489C0.449902 14.3624 0 13.9124 0 13.3574V12.3145H17V13.3574C17 13.9124 16.5501 14.3624 15.9951 14.3624Z" fill="#F79F1A"/>
<path opacity="0.15" d="M0.714432 13.3567V3.64262C0.714432 3.0876 1.16437 2.6377 1.71939 2.6377H1.00486C0.449902 2.6377 0 3.0876 0 3.64262V13.3567C0 13.9117 0.449902 14.3617 1.00489 14.3617H1.71942C1.1644 14.3617 0.714432 13.9117 0.714432 13.3567Z" fill="#202121"/>
</g>
<defs>
<clipPath id="clip0_2040_17832">
<rect width="17" height="17" fill="white"/>
</clipPath>
</defs>
</svg>
