<svg width="20" height="15" viewBox="0 0 20 15" fill="none" xmlns="http://www.w3.org/2000/svg">
<g clip-path="url(#clip0_2040_21886)">
<path fill-rule="evenodd" clip-rule="evenodd" d="M0 0H28.5V1.1543H0V0ZM0 2.30859H28.5V3.46289H0V2.30859ZM0 4.61426H28.5V5.77148H0V4.61426ZM0 6.92285H28.5V8.07715H0V6.92285ZM0 9.23145H28.5V10.3857H0V9.23145ZM0 11.5371H28.5V12.6914H0V11.5371ZM0 13.8457H28.5V15H0V13.8457Z" fill="#BD3D44"/>
<path fill-rule="evenodd" clip-rule="evenodd" d="M0 1.15428H28.5V2.30858H0V1.15428ZM0 3.46288H28.5V4.61424H0V3.46288ZM0 5.76854H28.5V6.92284H0V5.76854ZM0 8.07713H28.5V9.23143H0V8.07713ZM0 10.3857H28.5V11.54H0V10.3857ZM0 12.6914H28.5V13.8457H0V12.6914Z" fill="white"/>
<path fill-rule="evenodd" clip-rule="evenodd" d="M0 0H11.3994V8.07715H0V0Z" fill="#192F5D"/>
<path fill-rule="evenodd" clip-rule="evenodd" d="M0.949219 0.345673L1.05469 0.665008H1.38867L1.11914 0.861297L1.22168 1.18356L0.949219 0.984344L0.679688 1.18063L0.782227 0.861297L0.509766 0.665008H0.849609L0.949219 0.345673ZM2.85059 0.345673L2.95313 0.665008H3.29004L3.01758 0.861297L3.12012 1.18356L2.85059 0.984344L2.57812 1.18063L2.68066 0.861297L2.41113 0.665008H2.74512L2.85059 0.345673ZM4.74902 0.345673L4.85449 0.665008H5.18555L4.91602 0.861297L5.01856 1.18356L4.74609 0.984344L4.47656 1.18063L4.5791 0.861297L4.30664 0.665008H4.64356L4.74902 0.345673ZM6.65039 0.345673L6.75293 0.665008H7.08984L6.81738 0.861297L6.92285 1.18356L6.65039 0.984344L6.37793 1.18063L6.4834 0.861297L6.21094 0.665008H6.54492L6.65039 0.345673ZM8.54883 0.345673L8.6543 0.665008H8.98828L8.71875 0.861297L8.82129 1.18356L8.54883 0.984344L8.2793 1.18063L8.38184 0.861297L8.11231 0.665008H8.44629L8.54883 0.345673ZM10.4502 0.345673L10.5527 0.665008H10.8896L10.6172 0.861297L10.7227 1.18356L10.4502 0.984344L10.1777 1.18063L10.2832 0.861297L10.0107 0.665008H10.3477L10.4502 0.345673ZM1.90137 1.15427L2.00391 1.4736H2.34082L2.06836 1.66989L2.16797 1.98923L1.9043 1.79294L1.63184 1.98923L1.72852 1.66989L1.46484 1.4736H1.79883L1.90137 1.15427ZM3.7998 1.15427L3.90527 1.4736H4.23926L3.9668 1.66989L4.07227 1.98923L3.7998 1.79294L3.52734 1.98923L3.63281 1.66989L3.36035 1.4736H3.69727L3.7998 1.15427ZM5.70117 1.15427L5.80371 1.4736H6.14063L5.86816 1.66989L5.9707 1.98923L5.70117 1.79294L5.42871 1.98923L5.53125 1.66989L5.26172 1.4736H5.5957L5.70117 1.15427ZM7.59961 1.15427L7.70508 1.4736H8.03906L7.7666 1.66989L7.87207 1.98923L7.59961 1.79294L7.33008 1.98923L7.43262 1.66989L7.16016 1.4736H7.5L7.59961 1.15427ZM9.50098 1.15427L9.60352 1.4736H9.94043L9.66797 1.66989L9.77051 1.98923L9.50098 1.79294L9.22852 1.98923L9.33106 1.66989L9.06152 1.4736H9.39551L9.50098 1.15427ZM0.949219 1.95993L1.05469 2.28512H1.38867L1.11914 2.48141L1.22168 2.80075L0.949219 2.60153L0.679688 2.80075L0.782227 2.47848L0.509766 2.2822H0.849609L0.949219 1.95993ZM2.85059 1.95993L2.95313 2.2822H3.29004L3.01758 2.47848L3.12012 2.79782L2.85059 2.5986L2.57812 2.79782L2.68066 2.47555L2.41113 2.27927H2.74512L2.85059 1.95993ZM4.74902 1.95993L4.85449 2.2822H5.18555L4.91602 2.47848L5.01856 2.79782L4.74609 2.5986L4.47656 2.79782L4.5791 2.47555L4.30664 2.27927H4.64356L4.74902 1.95993ZM6.65039 1.95993L6.75293 2.2822H7.08984L6.81738 2.47848L6.92285 2.79782L6.65039 2.5986L6.37793 2.79782L6.4834 2.47555L6.21094 2.27927H6.54492L6.65039 1.95993ZM8.54883 1.95993L8.6543 2.2822H8.98828L8.71875 2.47848L8.82129 2.79782L8.54883 2.5986L8.2793 2.79782L8.38184 2.47555L8.11231 2.27927H8.44629L8.54883 1.95993ZM10.4502 1.95993L10.5527 2.2822H10.8896L10.6172 2.47848L10.7227 2.79782L10.4502 2.5986L10.1777 2.79782L10.2832 2.47555L10.0107 2.27927H10.3477L10.4502 1.95993ZM1.90137 2.76852L2.00391 3.08786H2.34082L2.06836 3.28415L2.1709 3.60641L1.90137 3.40719L1.62891 3.60348L1.73145 3.28415L1.46191 3.08786H1.7959L1.90137 2.76852ZM3.7998 2.76852L3.90527 3.08786H4.23926L3.9668 3.28415L4.07227 3.60641L3.7998 3.40719L3.52734 3.60348L3.63281 3.28415L3.36035 3.08786H3.69727L3.7998 2.76852ZM5.70117 2.76852L5.80371 3.08786H6.14063L5.86816 3.28415L5.9707 3.60641L5.70117 3.40719L5.42871 3.60348L5.53125 3.28415L5.26172 3.08786H5.5957L5.70117 2.76852ZM7.59961 2.76852L7.70508 3.08786H8.03906L7.76953 3.28415L7.87207 3.60641L7.59961 3.40719L7.33008 3.60348L7.43262 3.28415L7.16016 3.08786H7.5L7.59961 2.76852ZM9.50098 2.76852L9.60352 3.08786H9.94043L9.66797 3.28415L9.77051 3.60641L9.50098 3.40719L9.22852 3.60348L9.33106 3.28415L9.06152 3.08786H9.39551L9.50098 2.76852ZM0.949219 3.57712L1.05469 3.89645H1.38867L1.11914 4.09274L1.22168 4.41501L0.949219 4.21579L0.679688 4.41208L0.782227 4.09274L0.509766 3.89645H0.849609L0.949219 3.57712ZM2.85059 3.57712L2.95313 3.89645H3.29004L3.01758 4.09274L3.12012 4.41208L2.85059 4.21579L2.57812 4.41208L2.68066 4.09274L2.41113 3.89645H2.74512L2.85059 3.57712ZM4.74902 3.57712L4.85449 3.89645H5.18555L4.91602 4.09274L5.01856 4.41501L4.74609 4.21579L4.47656 4.41208L4.5791 4.09274L4.30664 3.89645H4.64356L4.74902 3.57712ZM6.65039 3.57712L6.75293 3.89645H7.08984L6.81738 4.09274L6.92285 4.41501L6.65039 4.21579L6.37793 4.41208L6.4834 4.09274L6.21094 3.89645H6.54492L6.65039 3.57712ZM8.54883 3.57712L8.6543 3.89645H8.98828L8.71875 4.09274L8.82129 4.41501L8.54883 4.21579L8.2793 4.41208L8.38184 4.09274L8.11231 3.89645H8.44629L8.54883 3.57712ZM10.4502 3.57712L10.5527 3.89645H10.8896L10.6172 4.09274L10.7227 4.41501L10.4502 4.21579L10.1777 4.41208L10.2832 4.09274L10.0107 3.89645H10.3477L10.4502 3.57712ZM1.90137 4.38571L2.00391 4.70505H2.34082L2.06836 4.90133L2.1709 5.22067L1.90137 5.02145L1.62891 5.22067L1.73145 4.8984L1.46191 4.70212H1.7959L1.90137 4.38571ZM3.7998 4.38571L3.90527 4.70505H4.23926L3.9668 4.90133L4.07227 5.22067L3.7998 5.02145L3.52734 5.22067L3.63281 4.8984L3.36035 4.70212H3.69727L3.7998 4.38571ZM5.70117 4.38571L5.80371 4.70505H6.14063L5.86816 4.90133L5.9707 5.22067L5.70117 5.02145L5.42871 5.22067L5.53125 4.8984L5.26172 4.70212H5.5957L5.70117 4.38571ZM7.59961 4.38571L7.70508 4.70505H8.03906L7.76953 4.90133L7.87207 5.22067L7.59961 5.02145L7.33008 5.22067L7.43262 4.8984L7.16016 4.70212H7.5L7.59961 4.38571ZM9.50098 4.38571L9.60352 4.70505H9.94043L9.66797 4.90133L9.77051 5.22067L9.50098 5.02145L9.22852 5.22067L9.33106 4.8984L9.06152 4.70212H9.39551L9.50098 4.38571ZM0.949219 5.19137L1.05469 5.51364H1.38867L1.11914 5.70993L1.22168 6.02633L0.949219 5.83005L0.679688 6.02633L0.782227 5.707L0.509766 5.51071H0.849609L0.949219 5.19137ZM2.85059 5.19137L2.95313 5.51364H3.29004L3.01758 5.70993L3.12305 6.02633L2.85059 5.83005L2.57812 6.02633L2.68359 5.707L2.41113 5.51071H2.74512L2.85059 5.19137ZM4.74902 5.19137L4.85449 5.51364H5.18555L4.91602 5.70993L5.01856 6.02633L4.74609 5.83005L4.47656 6.02633L4.5791 5.707L4.30664 5.51071H4.64356L4.74902 5.19137ZM6.65039 5.19137L6.75293 5.51364H7.08984L6.81738 5.70993L6.92285 6.02633L6.65039 5.83005L6.37793 6.02633L6.4834 5.707L6.21094 5.51071H6.54492L6.65039 5.19137ZM8.54883 5.19137L8.6543 5.51364H8.98828L8.71875 5.70993L8.82129 6.02633L8.54883 5.83005L8.2793 6.02633L8.38184 5.707L8.11231 5.51071H8.44629L8.54883 5.19137ZM10.4502 5.19137L10.5527 5.51364H10.8896L10.6172 5.70993L10.7227 6.02633L10.4502 5.83005L10.1777 6.02633L10.2832 5.707L10.0107 5.51071H10.3477L10.4502 5.19137ZM1.90137 5.99997L2.00391 6.3193H2.34082L2.06836 6.51559L2.1709 6.83786L1.90137 6.63864L1.62891 6.83493L1.73145 6.51559L1.46191 6.3193H1.7959L1.90137 5.99997ZM3.7998 5.99997L3.90527 6.3193H4.23926L3.9668 6.51559L4.07227 6.83786L3.7998 6.63864L3.52734 6.83493L3.63281 6.51559L3.36035 6.3193H3.69727L3.7998 5.99997ZM5.70117 5.99997L5.80371 6.3193H6.14063L5.86816 6.51559L5.9707 6.83786L5.70117 6.63864L5.42871 6.83493L5.53125 6.51559L5.26172 6.3193H5.5957L5.70117 5.99997ZM7.59961 5.99997L7.70508 6.3193H8.03906L7.76953 6.51559L7.87207 6.83786L7.59961 6.63864L7.33008 6.83493L7.43262 6.51559L7.16016 6.3193H7.5L7.59961 5.99997ZM9.50098 5.99997L9.60352 6.3193H9.94043L9.66797 6.51559L9.77051 6.83786L9.50098 6.63864L9.22852 6.83493L9.33106 6.51559L9.06152 6.3193H9.39551L9.50098 5.99997ZM0.949219 6.80856L1.05469 7.1279H1.38867L1.11914 7.32418L1.22168 7.64352L0.949219 7.44723L0.679688 7.64352L0.782227 7.32126L0.509766 7.12497H0.849609L0.949219 6.80856ZM2.85059 6.80856L2.95313 7.1279H3.29004L3.01758 7.32418L3.12305 7.64352L2.85059 7.44723L2.57812 7.64352L2.68359 7.32126L2.41113 7.12497H2.74512L2.85059 6.80856ZM4.74902 6.80856L4.85449 7.1279H5.18555L4.92188 7.32418L5.02441 7.64352L4.75195 7.44723L4.48242 7.64352L4.58496 7.32126L4.3125 7.12497H4.64941L4.74902 6.80856ZM6.65039 6.80856L6.75293 7.1279H7.08984L6.81738 7.32418L6.92285 7.64352L6.65039 7.44723L6.37793 7.64352L6.4834 7.32126L6.21094 7.12497H6.54492L6.65039 6.80856ZM8.54883 6.80856L8.6543 7.1279H8.98828L8.71875 7.32418L8.82129 7.64352L8.54883 7.44723L8.2793 7.64352L8.38184 7.32126L8.11231 7.12497H8.44629L8.54883 6.80856ZM10.4502 6.80856L10.5527 7.1279H10.8896L10.6172 7.32418L10.7227 7.64352L10.4502 7.44723L10.1777 7.64352L10.2832 7.32126L10.0107 7.12497H10.3477L10.4502 6.80856Z" fill="white"/>
</g>
<defs>
<clipPath id="clip0_2040_21886">
<rect width="20" height="15" rx="2" fill="white"/>
</clipPath>
</defs>
</svg>
