<svg width="29" height="29" viewBox="0 0 29 29" fill="none" xmlns="http://www.w3.org/2000/svg">
<path d="M14.4967 5.60613C16.5739 5.57417 18.5828 6.34805 20.1017 7.76536L24.193 3.76473C21.5681 1.30517 18.0935 -0.0435216 14.4967 0.00107159C11.8092 0.000450611 9.17458 0.747441 6.88739 2.15851C4.60019 3.56957 2.75062 5.58908 1.54551 7.99118L6.23335 11.6308C6.80656 9.88786 7.91241 8.36885 9.39496 7.28795C10.8775 6.20704 12.662 5.61879 14.4967 5.60613Z" fill="#EA4335"/>
<path d="M28.4144 14.821C28.4315 13.8244 28.3286 12.8294 28.1078 11.8575H14.4973V17.2381H22.4874C22.3358 18.1814 21.995 19.0844 21.4855 19.8926C20.976 20.7009 20.3082 21.3977 19.5225 21.9413L24.0974 25.4847C25.5232 24.1081 26.6444 22.4478 27.3888 20.611C28.1331 18.7743 28.4839 16.8018 28.4186 14.821H28.4144Z" fill="#4285F4"/>
<path d="M6.25094 17.365C5.93397 16.4421 5.77057 15.4735 5.76724 14.4977C5.77302 13.5234 5.93056 12.556 6.23421 11.6303L1.54637 7.99072C0.529611 10.0093 0 12.2381 0 14.4984C0 16.7586 0.529611 18.9874 1.54637 21.006L6.25094 17.365Z" fill="#FBBC05"/>
<path d="M14.4978 28.9944C18.029 29.0942 21.4644 27.8377 24.0979 25.483L19.5229 21.9396C18.0396 22.9341 16.2829 23.4408 14.4978 23.3893C12.6646 23.3784 10.8814 22.7906 9.40122 21.7092C7.92099 20.6278 6.81885 19.1077 6.25116 17.3647L1.56332 21.0057C2.76518 23.4067 4.61172 25.4257 6.89616 26.8367C9.1806 28.2476 11.8127 28.9947 14.4978 28.9944Z" fill="#34A853"/>
</svg>
