<svg width="29" height="25" viewBox="0 0 29 25" fill="none" xmlns="http://www.w3.org/2000/svg">
<path d="M24.9998 17.453H24.8441L23.1413 13.4814C23.43 13.6079 23.7412 13.6752 24.0564 13.6795C24.1815 13.6795 24.3014 13.6298 24.3899 13.5413C24.4784 13.4528 24.5281 13.3329 24.5281 13.2078V9.43422C24.5281 9.30912 24.4784 9.18915 24.3899 9.10069C24.3014 9.01223 24.1815 8.96253 24.0564 8.96253C23.5652 8.96519 23.087 9.12117 22.6887 9.40868C22.2904 9.69619 21.9919 10.1009 21.8347 10.5663C21.6959 10.3725 21.5188 10.2093 21.3143 10.0868C21.1098 9.96425 20.8824 9.88503 20.646 9.85403C20.3464 9.81533 20.0422 9.83454 19.7498 9.91063H19.3394C18.5423 9.91063 18.1885 9.43894 17.6319 8.67008L17.3536 8.27858C17.639 8.26401 17.9156 8.17454 18.1555 8.01914C18.3375 7.88703 18.4916 7.72026 18.609 7.52842C18.7264 7.33657 18.8047 7.12343 18.8394 6.90123C18.9927 6.81291 19.1268 6.69478 19.2338 6.55382C19.3407 6.41286 19.4183 6.25192 19.4621 6.08048C19.482 5.94526 19.4688 5.80723 19.4236 5.67824C19.3784 5.54924 19.3026 5.43315 19.2026 5.33993C19.01 5.01017 18.9045 4.63682 18.896 4.25503C19.0178 4.24774 19.132 4.19355 19.2147 4.10384C19.2974 4.01413 19.3421 3.89587 19.3394 3.7739C19.3395 3.27396 19.2402 2.77899 19.0473 2.31774C18.8544 1.8565 18.5718 1.43818 18.2159 1.08709C17.86 0.735997 17.4378 0.459129 16.974 0.272571C16.5102 0.0860123 16.0139 -0.00651749 15.514 0.000356763C14.533 0.0196686 13.5976 0.417971 12.9038 1.11178C12.21 1.80558 11.8116 2.74102 11.7923 3.72202C11.7835 4.22215 11.875 4.71898 12.0613 5.18319C12.2476 5.6474 12.5251 6.06958 12.8772 6.42482C12.9816 6.52855 13.0918 6.62619 13.2074 6.71727C11.3867 7.16066 10.4291 8.86819 9.93858 10.3493C9.79899 10.2086 9.63291 10.097 9.44994 10.0209C9.26696 9.94483 9.07072 9.90574 8.87255 9.90592H3.86317C3.61161 9.9055 3.36399 9.96835 3.14309 10.0887C2.92218 10.209 2.73509 10.383 2.59903 10.5946C2.53085 10.6997 2.50721 10.8275 2.5333 10.9501C2.5594 11.0726 2.6331 11.1797 2.73818 11.2479C2.84327 11.3161 2.97113 11.3397 3.09365 11.3136C3.21616 11.2875 3.3233 11.2138 3.39148 11.1087C3.4423 11.03 3.51218 10.9654 3.59464 10.9209C3.6771 10.8763 3.76946 10.8533 3.86317 10.854H4.71693V12.2691C4.71693 12.3942 4.76663 12.5142 4.85509 12.6026C4.94355 12.6911 5.06353 12.7408 5.18863 12.7408H7.5471C7.6722 12.7408 7.79217 12.6911 7.88063 12.6026C7.96909 12.5142 8.01879 12.3942 8.01879 12.2691V10.8493H8.87255C8.94627 10.8493 9.01926 10.8638 9.08736 10.892C9.15546 10.9202 9.21734 10.9616 9.26946 11.0137C9.32159 11.0658 9.36293 11.1277 9.39114 11.1958C9.41935 11.2639 9.43387 11.3369 9.43387 11.4106V15.0096C9.43263 15.1577 9.37294 15.2993 9.26781 15.4035C9.16267 15.5078 9.02061 15.5662 8.87255 15.5662H3.86317C3.72808 15.57 3.59632 15.524 3.49286 15.4371C3.3894 15.3501 3.32144 15.2283 3.30185 15.0945H4.24524C4.37034 15.0945 4.49032 15.0448 4.57878 14.9564C4.66724 14.8679 4.71693 14.748 4.71693 14.6229C4.71693 14.4978 4.66724 14.3778 4.57878 14.2893C4.49032 14.2009 4.37034 14.1512 4.24524 14.1512H3.30185V13.2078H3.77355C3.89865 13.2078 4.01863 13.1581 4.10709 13.0696C4.19555 12.9812 4.24524 12.8612 4.24524 12.7361C4.24524 12.611 4.19555 12.491 4.10709 12.4025C4.01863 12.3141 3.89865 12.2644 3.77355 12.2644H1.41508C1.28998 12.2644 1.17 12.3141 1.08154 12.4025C0.993083 12.491 0.943387 12.611 0.943387 12.7361C0.943387 12.8612 0.993083 12.9812 1.08154 13.0696C1.17 13.1581 1.28998 13.2078 1.41508 13.2078H2.35847V14.1512H0.471693C0.346593 14.1512 0.226615 14.2009 0.138156 14.2893C0.0496961 14.3778 0 14.4978 0 14.6229C0 14.748 0.0496961 14.8679 0.138156 14.9564C0.226615 15.0448 0.346593 15.0945 0.471693 15.0945H2.35847C2.38013 15.4767 2.54704 15.836 2.82501 16.0991C3.10299 16.3622 3.47101 16.509 3.85374 16.5096H6.2122C5.99393 16.7237 5.80801 16.9684 5.66032 17.236C5.03042 18.4713 4.70686 19.84 4.71693 21.2266C4.71693 21.3517 4.76663 21.4716 4.85509 21.5601C4.94355 21.6486 5.06353 21.6983 5.18863 21.6983H6.63673C6.75744 22.6048 7.20326 23.4366 7.89129 24.0391C8.57932 24.6416 9.46273 24.9737 10.3773 24.9737C11.2918 24.9737 12.1752 24.6416 12.8632 24.0391C13.5512 23.4366 13.9971 22.6048 14.1178 21.6983H21.2592C21.35 22.4189 21.6469 23.098 22.1142 23.6541C22.5814 24.2102 23.1993 24.6197 23.8935 24.8333C24.5877 25.0469 25.3289 25.0555 26.0279 24.8583C26.727 24.661 27.3543 24.2662 27.8345 23.7212C28.3147 23.1763 28.6274 22.5043 28.735 21.7859C28.8427 21.0676 28.7408 20.3335 28.4415 19.6716C28.1422 19.0098 27.6582 18.4484 27.0477 18.0549C26.4372 17.6613 25.7261 17.4524 24.9998 17.453ZM7.0754 11.7927H5.66032V10.8493H7.0754V11.7927ZM23.5847 9.98611V12.6559C23.3083 12.5587 23.0689 12.378 22.8995 12.1389C22.7301 11.8998 22.6392 11.614 22.6392 11.321C22.6392 11.028 22.7301 10.7422 22.8995 10.5031C23.0689 10.264 23.3083 10.0833 23.5847 9.98611ZM20.5092 10.7833C20.6941 10.8109 20.8659 10.8952 21.0011 11.0244C21.1362 11.1536 21.228 11.3215 21.2639 11.505L21.3866 11.7927C20.7298 12.1303 19.9971 12.2928 19.2592 12.2644C19.1943 11.9842 19.2283 11.6901 19.3556 11.4322C19.4828 11.1742 19.6955 10.9683 19.9574 10.8493C20.1352 10.7916 20.323 10.7707 20.5092 10.788V10.7833ZM18.1838 6.17954C18.1053 6.2191 18.0394 6.27981 17.9935 6.35482C17.9477 6.42983 17.9237 6.51616 17.9244 6.60406C17.9209 6.72281 17.8926 6.83952 17.8415 6.94674C17.7903 7.05395 17.7173 7.1493 17.6272 7.2267C17.3583 7.40594 16.8583 7.36349 16.2121 7.10878C16.1776 7.10496 16.1428 7.10496 16.1083 7.10878L16.0376 7.04746V5.24087C16.0376 4.97691 16.1424 4.72376 16.3291 4.53711C16.5157 4.35046 16.7689 4.2456 17.0329 4.2456H17.9244C17.9392 4.85619 18.1309 5.44935 18.4762 5.95313C18.3909 6.04441 18.2923 6.12232 18.1838 6.18426V6.17954ZM12.7357 3.73145C12.7593 2.99959 13.0606 2.30415 13.5784 1.78638C14.0961 1.26861 14.7916 0.967332 15.5234 0.943743H15.5659C16.235 0.943306 16.8827 1.17997 17.3939 1.61174C17.9051 2.0435 18.2468 2.64243 18.3583 3.30221H17.0329C16.5191 3.30346 16.0267 3.50811 15.6634 3.87141C15.3001 4.23471 15.0954 4.72709 15.0942 5.24087V6.56633C14.428 6.45378 13.824 6.1066 13.3914 5.58753C12.9589 5.06847 12.7263 4.41177 12.7357 3.73617V3.73145ZM14.1508 7.54745C15.6932 7.54745 16.2593 8.35405 16.8583 9.20309C17.2923 9.82573 17.8017 10.505 18.6508 10.7455C18.3837 11.1771 18.2629 11.6833 18.3064 12.1889C17.721 12.061 17.1688 11.812 16.6854 11.4577C16.202 11.1035 15.7982 10.6521 15.4998 10.1323C15.4741 10.07 15.4354 10.0139 15.3862 9.96778C15.3369 9.92169 15.2784 9.88669 15.2145 9.86514C15.1506 9.84358 15.0828 9.83598 15.0158 9.84284C14.9487 9.8497 14.8838 9.87087 14.8256 9.90491C14.7674 9.93895 14.7172 9.98508 14.6783 10.0402C14.6394 10.0953 14.6128 10.1581 14.6003 10.2243C14.5877 10.2906 14.5896 10.3588 14.6056 10.4243C14.6216 10.4898 14.6515 10.5511 14.6933 10.604C14.8642 10.891 15.06 11.1624 15.2782 11.4153L15.2357 11.4436C14.796 11.9494 14.4867 12.555 14.3348 13.2078H10.3773V12.7361C10.4103 12.4483 10.948 7.54745 14.1508 7.54745ZM10.3773 15.0049V14.1512H14.6225C14.7168 14.1512 16.981 14.1795 16.981 16.5096V18.8681H15.0942V17.9247C15.1061 17.6118 15.0533 17.2998 14.939 17.0082C14.8247 16.7167 14.6514 16.4519 14.4299 16.2305C14.2085 16.0091 13.9437 15.8358 13.6522 15.7215C13.3606 15.6072 13.0486 15.5543 12.7357 15.5662H10.2688C10.3408 15.3879 10.3777 15.1973 10.3773 15.0049ZM10.3773 24.0567C9.70893 24.056 9.0624 23.8189 8.55217 23.3872C8.04194 22.9555 7.70094 22.3572 7.58955 21.6983H8.55652C8.66514 22.0979 8.90227 22.4508 9.23132 22.7024C9.56037 22.9539 9.96306 23.0902 10.3773 23.0902C10.7915 23.0902 11.1941 22.9539 11.5232 22.7024C11.8522 22.4508 12.0894 22.0979 12.198 21.6983H13.165C13.0536 22.3572 12.7126 22.9555 12.2023 23.3872C11.6921 23.8189 11.0456 24.056 10.3773 24.0567ZM9.56594 21.6983H11.1886C11.105 21.839 10.9863 21.9556 10.8441 22.0366C10.7018 22.1176 10.5409 22.1602 10.3773 22.1602C10.2136 22.1602 10.0527 22.1176 9.91044 22.0366C9.7682 21.9556 9.64948 21.839 9.56594 21.6983ZM5.66032 20.7549C5.7205 19.6692 6.01327 18.6091 6.5188 17.6464C6.70656 17.2973 6.98674 17.0066 7.32868 16.8061C7.67062 16.6056 8.06113 16.503 8.45746 16.5096H12.7357C12.9242 16.4994 13.1128 16.529 13.2891 16.5965C13.4654 16.664 13.6255 16.7679 13.759 16.9014C13.8925 17.0349 13.9964 17.195 14.0639 17.3713C14.1314 17.5476 14.161 17.7362 14.1508 17.9247V19.3398C14.1508 19.8501 14.3163 20.3466 14.6225 20.7549H5.66032ZM16.5093 20.7549C16.2173 20.754 15.9328 20.6629 15.6946 20.494C15.4565 20.3252 15.2764 20.0867 15.1791 19.8115H17.4527C17.5758 19.8036 17.6992 19.8214 17.8151 19.8639C17.9309 19.9064 18.0366 19.9726 18.1254 20.0583C18.2142 20.144 18.2841 20.2473 18.3307 20.3615C18.3773 20.4758 18.3996 20.5985 18.396 20.7218C18.2397 20.7427 18.0821 20.7537 17.9244 20.7549H16.5093ZM19.5328 20.203C19.4647 20.2801 19.387 20.3482 19.3017 20.4058C19.2499 20.0492 19.0901 19.717 18.8439 19.4539C18.5977 19.1908 18.2768 19.0094 17.9244 18.9341V16.5096C17.9669 15.74 17.7207 14.9822 17.2338 14.3845C16.747 13.7869 16.0546 13.3925 15.2923 13.2785C15.4132 12.8555 15.6204 12.462 15.9008 12.1229C15.913 12.1064 15.924 12.089 15.9338 12.071C16.666 12.6649 17.547 13.0466 18.481 13.1748L19.8111 18.9577C19.8858 19.3933 19.7858 19.8407 19.5328 20.203ZM20.7545 18.7643L19.4574 13.2078C20.2555 13.2151 21.0441 13.0341 21.7592 12.6795L23.9856 17.8681L21.929 20.7549H20.2828C20.4898 20.4711 20.6382 20.1489 20.7192 19.8071C20.8002 19.4653 20.8122 19.1108 20.7545 18.7643ZM24.9998 20.7549H24.1884C24.2923 20.575 24.4526 20.4345 24.6444 20.355C24.8363 20.2755 25.049 20.2616 25.2496 20.3153C25.4502 20.3691 25.6275 20.4875 25.7539 20.6523C25.8803 20.817 25.9488 21.0189 25.9488 21.2266C25.9488 21.4342 25.8803 21.6361 25.7539 21.8009C25.6275 21.9656 25.4502 22.084 25.2496 22.1378C25.049 22.1915 24.8363 22.1776 24.6444 22.0981C24.4526 22.0187 24.2923 21.8781 24.1884 21.6983H24.9998C25.1249 21.6983 25.2448 21.6486 25.3333 21.5601C25.4218 21.4716 25.4714 21.3517 25.4714 21.2266C25.4714 21.1015 25.4218 20.9815 25.3333 20.893C25.2448 20.8046 25.1249 20.7549 24.9998 20.7549ZM23.0847 20.7549L23.2498 20.5237C23.2213 20.5992 23.1976 20.6764 23.179 20.7549H23.0847ZM24.9998 24.0567C24.3314 24.056 23.6849 23.8189 23.1747 23.3872C22.6644 22.9555 22.3234 22.3572 22.212 21.6983H23.179C23.2823 22.0961 23.5127 22.4494 23.8352 22.7043C24.1577 22.9592 24.5546 23.1018 24.9656 23.1105C25.3766 23.1191 25.7791 22.9933 26.1121 22.7521C26.445 22.511 26.69 22.1677 26.8099 21.7745C26.9299 21.3813 26.9181 20.9598 26.7764 20.5739C26.6348 20.188 26.3709 19.8589 26.0251 19.6367C25.6793 19.4145 25.2703 19.3113 24.8605 19.3429C24.4506 19.3744 24.0623 19.539 23.7545 19.8115L24.7592 18.3964C24.8394 18.3964 24.9196 18.3964 24.9998 18.3964C25.7504 18.3964 26.4702 18.6946 27.001 19.2253C27.5317 19.7561 27.8299 20.476 27.8299 21.2266C27.8299 21.9772 27.5317 22.697 27.001 23.2278C26.4702 23.7585 25.7504 24.0567 24.9998 24.0567Z" fill="#FF5247"/>
</svg>
