<svg width="24" height="24" viewBox="0 0 24 24" fill="none" xmlns="http://www.w3.org/2000/svg">
<g clip-path="url(#clip0_2040_21770)">
<path d="M21.4688 6.79688H2.53125C1.36814 6.79688 0.421875 7.74314 0.421875 8.90625V17.3438C0.421875 18.5069 1.36814 19.4531 2.53125 19.4531H21.4688C22.6319 19.4531 23.5781 18.5069 23.5781 17.3438V8.90625C23.5781 7.74314 22.6319 6.79688 21.4688 6.79688ZM5.98786 14.219C5.80809 14.219 5.50097 14.2202 5.21348 14.2217V15.8434C5.21348 16.2317 4.89867 16.5465 4.51036 16.5465C4.12205 16.5465 3.80723 16.2317 3.80723 15.8434L3.79688 10.5023C3.79627 10.3154 3.87009 10.136 4.002 10.0036C4.13391 9.87122 4.31316 9.79688 4.5 9.79688H5.98786C7.2233 9.79688 8.22844 10.7888 8.22844 12.0079C8.22844 13.2271 7.2233 14.219 5.98786 14.219ZM12.0239 16.377C11.6051 16.3843 10.5576 16.3883 10.5132 16.3885C10.5123 16.3885 10.5114 16.3885 10.5105 16.3885C10.325 16.3885 10.1469 16.3152 10.0152 16.1844C9.8828 16.053 9.80808 15.8744 9.80737 15.6879C9.80733 15.6691 9.79688 10.5014 9.79688 10.5014C9.79655 10.3147 9.87042 10.1355 10.0023 10.0033C10.1342 9.87117 10.3133 9.79688 10.5 9.79688H11.9686C13.6417 9.79688 14.7657 11.1214 14.7657 13.0927C14.7657 14.968 13.6126 16.3493 12.0239 16.377ZM19.2291 12.3445C19.6174 12.3445 19.9322 12.6593 19.9322 13.0477C19.9322 13.436 19.6174 13.7508 19.2291 13.7508H17.9531V15.75C17.9531 16.1383 17.6383 16.4531 17.25 16.4531C16.8617 16.4531 16.5469 16.1383 16.5469 15.75V10.4457C16.5469 10.0574 16.8617 9.74259 17.25 9.74259H19.3998C19.7881 9.74259 20.103 10.0574 20.103 10.4457C20.103 10.834 19.7881 11.1488 19.3998 11.1488H17.9531V12.3445H19.2291Z" fill="#38CCA0"/>
<path d="M11.9693 11.2031H11.2051C11.2062 11.8378 11.21 14.3678 11.212 14.9786C11.5046 14.9767 11.8179 14.9741 12 14.9709C12.9396 14.9545 13.3602 14.0158 13.3602 13.0927C13.3602 12.6494 13.2599 11.2031 11.9693 11.2031Z" fill="#38CCA0"/>
<path d="M5.9877 11.2031H5.20508C5.20592 11.516 5.20672 11.8489 5.20672 12.0079C5.20672 12.1938 5.20803 12.5161 5.20953 12.8155C5.49809 12.814 5.80634 12.8127 5.98775 12.8127C6.44 12.8127 6.82208 12.4442 6.82208 12.0079C6.82208 11.5717 6.43995 11.2031 5.9877 11.2031Z" fill="#38CCA0"/>
<path d="M20.7401 5.39062C20.5771 4.94391 20.324 4.53103 19.9888 4.1775L17.0683 1.09683C16.4074 0.399797 15.4775 0 14.517 0H5.15625C3.99314 0 3.04688 0.946266 3.04688 2.10938V5.39062H20.7401Z" fill="#38CCA0"/>
<path d="M3.04688 20.8594V21.8906C3.04688 23.0537 3.99314 24 5.15625 24H18.8438C20.0069 24 20.9531 23.0537 20.9531 21.8906V20.8594H3.04688Z" fill="#38CCA0"/>
</g>
<defs>
<clipPath id="clip0_2040_21770">
<rect width="24" height="24" fill="white"/>
</clipPath>
</defs>
</svg>
